<?xml version="1.0" standalone="no"?>
<!DOCTYPE svg PUBLIC "-//W3C//DTD SVG 20010904//EN"
 "http://www.w3.org/TR/2001/REC-SVG-20010904/DTD/svg10.dtd">
<svg version="1.0" xmlns="http://www.w3.org/2000/svg"
 width="1024.000000pt" height="1024.000000pt" viewBox="0 0 1024.000000 1024.000000"
 preserveAspectRatio="xMidYMid meet">
<metadata>
Created by potrace 1.11, written by Peter Selinger 2001-2013
</metadata>
<g transform="translate(0.000000,1024.000000) scale(0.100000,-0.100000)"
fill="#000000" stroke="none">
<path d="M4828 10235 c-1 -1 -47 -6 -100 -9 -54 -4 -114 -9 -135 -11 -74 -9
-268 -36 -283 -39 -8 -1 -37 -6 -65 -10 -56 -9 -95 -16 -110 -20 -5 -1 -31 -6
-58 -11 -44 -7 -74 -24 -45 -26 93 -5 726 -204 903 -284 98 -44 163 -68 187
-68 14 0 48 10 75 23 122 57 643 242 749 265 10 2 58 15 107 29 48 13 90 25
92 25 3 1 6 1 8 2 1 0 15 3 32 5 56 10 49 19 -18 27 -26 3 -51 8 -55 10 -4 3
-28 8 -54 11 -26 4 -53 8 -60 11 -20 6 -102 19 -203 30 -33 4 -62 8 -65 10 -3
2 -45 6 -95 10 -49 4 -101 9 -115 12 -29 5 -687 13 -692 8z"/>
<path d="M3345 9924 c-281 -104 -545 -229 -791 -372 -135 -79 -297 -182 -292
-187 2 -2 26 1 53 6 65 12 165 27 340 48 70 9 106 13 240 27 17 1 66 6 110 9
44 3 100 8 125 10 178 15 340 20 725 20 242 0 494 -4 560 -8 219 -14 323 -22
420 -33 28 -3 66 -7 85 -9 19 -2 60 -7 90 -11 74 -9 132 -9 210 0 36 4 81 9
100 11 19 2 67 6 105 10 132 13 150 15 225 20 41 3 118 8 170 12 125 9 996 9
1130 0 58 -4 132 -10 165 -13 56 -5 94 -8 232 -19 29 -2 69 -6 90 -9 21 -3 63
-8 93 -11 30 -3 73 -7 95 -10 22 -3 58 -8 80 -10 22 -3 51 -7 65 -10 14 -2 45
-7 70 -11 25 -3 65 -9 90 -14 25 -5 47 -7 49 -5 6 7 -261 172 -401 248 -304
166 -740 351 -828 351 -42 0 -102 -8 -142 -20 -10 -3 -29 -7 -43 -10 -54 -9
-73 -13 -165 -34 -52 -12 -104 -24 -115 -26 -11 -2 -92 -22 -180 -44 -88 -23
-167 -42 -175 -44 -86 -21 -353 -103 -556 -172 l-252 -84 -288 94 c-271 89
-407 131 -450 141 -11 2 -62 16 -114 30 -52 14 -104 28 -115 30 -11 2 -20 4
-20 5 0 1 -7 3 -15 5 -301 69 -411 94 -435 98 -16 3 -64 12 -105 21 -41 9 -84
16 -95 16 -11 -1 -74 -21 -140 -46z"/>
<path d="M4178 9254 c-2 -1 -64 -4 -138 -8 -261 -10 -508 -29 -665 -51 -16 -2
-55 -7 -85 -10 -30 -3 -66 -7 -80 -9 -14 -3 -47 -7 -75 -11 -54 -7 -106 -14
-144 -20 -13 -2 -43 -7 -65 -10 -23 -4 -48 -8 -56 -9 -8 -2 -35 -6 -60 -10
-25 -4 -52 -9 -60 -10 -8 -2 -33 -6 -55 -10 -281 -51 -711 -153 -983 -233
l-127 -37 -100 -101 c-432 -435 -771 -926 -1030 -1490 -50 -108 -97 -227 -92
-231 2 -3 57 19 123 47 122 52 461 190 479 194 6 1 17 5 25 8 80 34 643 217
710 232 17 3 265 69 323 85 20 6 37 14 37 18 0 9 145 196 215 278 145 169 356
369 550 521 81 63 271 194 335 232 264 155 485 259 720 341 36 12 72 25 80 28
8 3 20 6 25 8 6 1 66 18 135 38 69 20 159 43 200 52 99 21 98 21 150 29 25 4
52 9 61 10 9 2 40 6 70 10 30 3 61 8 69 10 53 13 248 24 450 24 217 0 331 -7
510 -33 19 -3 55 -8 80 -12 36 -4 192 -35 302 -59 89 -19 362 -107 484 -155
360 -144 739 -367 1014 -599 19 -17 53 -45 75 -63 142 -118 404 -400 541 -584
32 -43 63 -82 69 -86 5 -4 57 -19 115 -33 129 -32 194 -50 440 -123 304 -91
1012 -359 1132 -429 14 -8 -74 195 -166 382 -109 221 -203 386 -329 575 -75
114 -257 363 -277 380 -3 3 -29 34 -59 70 -122 149 -388 429 -407 431 -15 1
-104 26 -302 85 -29 8 -61 17 -70 19 -9 2 -64 15 -122 30 -58 15 -116 29 -130
31 -14 3 -31 7 -39 9 -27 10 -353 77 -486 100 -136 23 -266 44 -307 50 -59 8
-125 17 -147 20 -14 3 -54 7 -90 10 -36 4 -77 8 -91 10 -61 10 -161 19 -310
31 -47 3 -101 8 -120 9 -171 17 -472 21 -1240 15 -146 -1 -433 0 -637 2 -205
3 -374 4 -375 2z"/>
<path d="M5027 8584 c-1 -1 -51 -4 -112 -8 -206 -13 -441 -51 -620 -101 -49
-14 -99 -27 -110 -30 -11 -3 -31 -9 -45 -14 -14 -6 -69 -26 -122 -45 -430
-158 -806 -401 -1143 -741 -375 -376 -645 -830 -790 -1326 l-28 -97 30 -43
c119 -176 257 -464 328 -689 40 -126 80 -286 90 -357 2 -12 6 -34 9 -50 3 -15
8 -46 11 -68 3 -22 7 -53 10 -70 25 -162 25 -535 0 -713 -12 -91 -18 -125 -36
-217 -24 -118 -26 -131 -34 -155 -5 -14 13 -28 92 -70 229 -122 480 -309 672
-500 104 -105 246 -269 301 -350 13 -19 27 -37 30 -40 27 -25 174 -272 230
-387 l44 -92 36 5 c79 12 99 15 180 30 186 34 378 90 584 171 135 53 358 162
383 186 30 29 36 582 8 726 -2 9 -6 45 -10 81 -4 35 -11 75 -16 88 -10 25
-185 203 -283 287 -89 77 -244 195 -319 244 -37 25 -67 50 -67 57 0 6 4 33 9
60 5 27 12 74 16 104 3 30 8 62 10 70 26 99 26 778 0 820 -2 3 -6 28 -9 57 -6
59 -52 293 -67 339 -5 17 -11 40 -14 50 -12 60 -48 154 -58 155 -30 2 -118 18
-197 35 -36 8 -76 17 -90 20 -154 32 -453 141 -650 236 -196 95 -470 262 -454
278 16 15 250 80 379 105 17 3 41 8 55 10 59 12 184 30 285 42 125 15 695 7
711 -9 5 -6 58 -137 85 -212 32 -86 96 -299 104 -349 3 -17 7 -33 9 -36 2 -3
7 -22 10 -41 3 -19 7 -44 10 -55 2 -11 7 -40 12 -65 4 -25 8 -47 9 -50 1 -3 5
-34 9 -70 5 -36 10 -74 12 -85 8 -40 18 -253 17 -365 0 -139 -14 -344 -27
-425 -3 -16 -8 -48 -11 -70 -10 -67 -16 -98 -24 -136 l-8 -36 66 -12 c261 -44
384 -56 591 -56 134 0 336 12 350 20 3 2 37 6 75 10 39 4 73 9 77 11 3 2 26 7
50 9 62 8 103 21 101 32 -9 44 -26 143 -38 223 -36 243 -38 583 -5 840 20 157
36 244 67 365 14 55 26 107 28 115 10 44 63 201 107 313 35 87 56 127 67 128
9 1 25 3 36 4 132 19 510 19 673 0 161 -19 201 -25 327 -51 112 -23 374 -92
385 -101 20 -17 -334 -225 -543 -319 -205 -92 -513 -195 -657 -218 -14 -2 -36
-7 -50 -10 -31 -7 -75 -15 -119 -21 -19 -3 -37 -7 -39 -10 -8 -7 -62 -196 -78
-270 -9 -38 -17 -79 -20 -90 -2 -11 -6 -31 -9 -45 -3 -14 -7 -34 -9 -46 -2
-12 -7 -45 -11 -75 -3 -30 -8 -61 -10 -69 -12 -46 -19 -192 -20 -405 0 -261 6
-348 40 -548 8 -48 15 -93 15 -100 0 -6 -24 -28 -52 -47 -57 -38 -256 -187
-274 -204 -6 -6 -32 -29 -59 -51 -78 -64 -275 -265 -285 -290 -5 -12 -11 -50
-15 -83 -3 -33 -8 -69 -10 -80 -27 -141 -22 -693 7 -729 18 -22 313 -161 448
-212 208 -77 476 -146 645 -166 28 -3 59 -8 70 -10 17 -3 28 12 65 87 274 555
755 1043 1292 1310 21 10 36 24 33 31 -5 16 -43 195 -49 231 -3 16 -8 50 -12
75 -3 25 -7 56 -9 69 -26 165 -25 555 1 732 15 107 48 280 64 340 75 289 204
595 349 826 34 53 61 99 61 103 0 34 -96 308 -157 451 -293 682 -856 1268
-1524 1588 -96 46 -136 63 -259 112 -94 37 -323 107 -410 124 -14 3 -36 8 -50
11 -45 10 -186 34 -231 39 -24 3 -54 7 -65 10 -47 10 -447 28 -457 20z"/>
<path d="M1705 7228 c-71 -27 -143 -56 -160 -63 -16 -7 -79 -33 -140 -58 -234
-95 -665 -298 -855 -402 -41 -23 -106 -59 -145 -80 -125 -67 -210 -118 -217
-129 -19 -28 -111 -461 -133 -621 -4 -27 -8 -61 -10 -75 -2 -14 -7 -56 -11
-95 -3 -38 -8 -73 -10 -76 -17 -30 -26 -708 -12 -889 8 -92 18 -193 23 -225 2
-11 4 -28 4 -37 1 -14 8 -11 34 15 19 17 73 68 122 112 48 44 93 85 99 90 6 6
45 39 86 75 41 36 83 73 95 83 15 15 195 160 370 300 139 112 429 316 660 466
88 57 161 105 163 107 7 5 -42 87 -140 235 l-105 156 49 184 c88 335 185 592
323 857 35 67 59 122 52 121 -7 0 -70 -23 -142 -51z"/>
<path d="M8460 7128 c42 -84 91 -189 109 -233 18 -44 39 -93 47 -110 28 -62
105 -307 152 -484 l48 -183 -110 -167 c-115 -174 -142 -219 -135 -224 2 -2
103 -69 224 -150 231 -153 246 -163 390 -267 71 -51 298 -224 395 -303 26 -20
195 -162 200 -167 3 -3 39 -34 80 -70 95 -82 265 -236 302 -274 15 -16 30 -27
33 -25 2 3 7 27 10 54 4 28 8 60 10 72 26 165 26 827 0 1048 -2 17 -6 53 -10
81 -3 29 -7 60 -9 70 -4 19 -13 86 -22 154 -12 99 -114 545 -125 554 -5 3
-135 77 -224 127 -218 122 -635 328 -824 406 -46 19 -91 39 -100 44 -29 16
-499 199 -512 199 -3 0 28 -69 71 -152z"/>
<path d="M1760 5342 c-306 -204 -648 -454 -824 -602 -11 -10 -64 -53 -116 -97
-52 -43 -110 -92 -129 -108 -202 -178 -263 -235 -488 -454 l-82 -80 39 -153
c65 -254 170 -562 264 -773 25 -54 28 -58 38 -40 51 92 469 624 633 806 27 30
79 89 115 129 79 90 539 552 667 671 74 68 92 90 88 108 -2 12 -7 52 -10 89
-16 185 -104 544 -132 541 -5 0 -33 -17 -63 -37z"/>
<path d="M8393 5343 c-44 -150 -55 -190 -58 -203 -33 -161 -45 -237 -58 -377
-4 -43 -4 -43 82 -120 215 -192 688 -682 876 -908 28 -33 53 -62 56 -65 3 -3
38 -45 78 -95 40 -49 80 -99 89 -110 56 -68 288 -378 311 -416 l20 -33 27 59
c33 77 94 232 123 315 13 36 27 74 31 85 20 48 110 357 124 425 3 14 10 42 15
63 l9 39 -106 105 c-59 58 -149 144 -201 191 -122 112 -127 117 -207 187 -36
33 -72 65 -78 70 -10 10 -291 241 -326 268 -248 196 -759 557 -788 557 -4 0
-13 -17 -19 -37z"/>
<path d="M1809 4072 c-110 -113 -161 -167 -283 -302 -18 -19 -85 -98 -150
-175 -65 -77 -128 -151 -139 -165 -200 -236 -594 -787 -583 -815 12 -32 229
-379 268 -430 5 -5 58 -75 118 -155 127 -169 167 -217 172 -210 3 3 33 52 68
110 211 348 538 798 834 1148 67 79 131 156 143 171 l22 27 -252 124 c-139 68
-253 124 -254 125 -1 0 25 102 58 225 54 206 83 324 95 390 3 14 7 33 10 43 3
9 4 17 1 17 -2 0 -59 -57 -128 -128z"/>
<path d="M8304 4185 c3 -11 7 -31 10 -45 14 -74 49 -218 95 -390 17 -63 37
-139 44 -168 8 -31 10 -55 5 -58 -5 -3 -82 -42 -171 -85 -89 -44 -169 -84
-177 -89 -8 -5 -45 -23 -83 -41 l-67 -32 22 -28 c13 -15 77 -92 144 -171 217
-256 430 -538 616 -814 51 -76 98 -144 103 -150 6 -7 48 -75 95 -152 47 -78
88 -141 91 -142 7 0 161 192 236 295 100 138 301 453 319 500 15 37 -447 663
-742 1005 -234 272 -550 603 -540 565z"/>
<path d="M2499 3087 c-390 -527 -660 -959 -938 -1501 l-50 -98 58 -57 c31 -31
90 -85 131 -121 40 -36 78 -70 84 -75 165 -150 664 -505 673 -479 3 10 161
306 213 399 133 240 373 618 548 864 l96 135 -63 123 c-159 310 -421 622 -672
802 l-56 40 -24 -32z"/>
<path d="M7634 3059 c-195 -155 -381 -355 -508 -549 -27 -41 -57 -86 -66 -100
-9 -14 -43 -77 -75 -141 l-58 -115 84 -120 c103 -146 181 -258 194 -281 6 -10
35 -56 66 -103 135 -206 309 -505 439 -755 40 -77 74 -141 76 -143 2 -4 87 49
187 117 38 25 79 53 90 60 36 24 259 192 286 216 14 12 73 63 131 113 58 50
137 122 177 160 l71 70 -92 179 c-51 98 -103 196 -115 218 -13 22 -37 65 -53
95 -175 315 -515 831 -736 1118 l-18 24 -80 -63z"/>
<path d="M4909 2245 c-2 -2 -40 -6 -84 -10 -44 -3 -91 -8 -105 -10 -14 -2 -43
-6 -65 -10 -22 -3 -53 -8 -70 -10 -68 -10 -224 -46 -324 -74 -113 -31 -281
-90 -281 -98 0 -2 13 -57 29 -121 26 -104 48 -226 67 -362 3 -24 8 -48 10 -52
9 -14 276 -90 399 -114 22 -4 47 -9 55 -11 8 -1 30 -5 47 -7 18 -3 48 -8 65
-11 18 -3 46 -7 61 -9 172 -28 642 -28 813 -1 16 3 43 7 59 10 17 2 48 7 70
10 22 3 46 8 54 11 8 2 30 7 50 10 52 8 183 41 281 72 47 14 87 26 90 27 19 2
29 22 35 72 12 102 45 280 70 375 14 51 25 96 25 100 0 3 -39 20 -87 38 -84
30 -108 37 -268 81 -105 28 -297 65 -390 74 -27 3 -68 8 -90 11 -46 6 -511 15
-516 9z"/>
<path d="M3362 1588 c-99 -148 -247 -388 -339 -548 -64 -111 -253 -460 -253
-467 0 -16 562 -263 599 -263 6 0 11 8 11 19 0 10 24 106 54 212 79 284 93
331 141 476 l45 132 -40 64 c-46 77 -73 159 -85 257 -8 70 -16 119 -30 185 -4
17 -7 38 -7 48 1 9 -1 17 -3 17 -3 0 -44 -60 -93 -132z"/>
<path d="M6779 1698 c0 -7 -2 -22 -4 -33 -2 -11 -10 -69 -19 -128 -14 -92 -21
-129 -39 -202 -6 -24 -58 -128 -77 -155 l-21 -29 35 -103 c68 -202 153 -490
170 -573 9 -43 41 -152 47 -159 12 -13 368 134 546 227 l53 27 -37 73 c-136
269 -376 677 -561 955 -71 107 -91 128 -93 100z"/>
<path d="M3860 881 c-10 -65 -16 -101 -25 -171 -3 -19 -8 -51 -11 -70 -7 -43
-11 -79 -19 -150 -3 -30 -7 -68 -9 -85 -2 -16 -7 -64 -11 -105 -4 -41 -9 -82
-10 -91 -5 -24 7 -36 40 -43 17 -3 55 -12 85 -20 30 -8 66 -17 80 -20 14 -2
72 -14 130 -26 58 -12 116 -23 130 -25 14 -2 30 -4 35 -5 23 -5 22 4 -10 72
-82 178 -137 418 -150 651 -5 73 -9 87 -29 87 -7 0 -59 15 -114 34 l-101 34
-11 -67z"/>
<path d="M6348 939 c-10 -6 -18 -7 -18 -3 0 3 -6 2 -12 -3 -7 -6 -49 -21 -93
-33 -44 -13 -83 -26 -87 -29 -4 -3 -9 -31 -12 -61 -25 -248 -82 -444 -191
-662 l-44 -88 42 5 c45 5 46 5 202 36 136 28 129 26 225 50 47 11 90 25 96 29
11 10 11 30 -1 120 -4 30 -8 73 -10 95 -4 45 -10 97 -30 240 -16 114 -23 163
-30 220 -10 76 -18 95 -37 84z"/>
<path d="M4615 593 c9 -330 23 -555 36 -568 29 -28 913 -26 940 3 10 10 24
246 34 564 l5 177 -43 -5 c-23 -3 -53 -7 -66 -9 -177 -29 -697 -23 -879 9
l-32 6 5 -177z"/>
</g>
</svg>
