<?xml version="1.0" standalone="no"?>
<!DOCTYPE svg PUBLIC "-//W3C//DTD SVG 20010904//EN"
 "http://www.w3.org/TR/2001/REC-SVG-20010904/DTD/svg10.dtd">
<svg version="1.0" xmlns="http://www.w3.org/2000/svg"
 width="2055.000000pt" height="2055.000000pt" viewBox="0 0 2055.000000 2055.000000"
 preserveAspectRatio="xMidYMid meet">
<metadata>
Created by potrace 1.11, written by Peter Selinger 2001-2013
</metadata>
<g transform="translate(0.000000,2055.000000) scale(0.100000,-0.100000)"
fill="#000000" stroke="none">
<path d="M9848 20545 c-2 -2 -59 -6 -128 -9 -69 -4 -152 -8 -185 -11 -93 -7
-186 -15 -235 -20 -25 -2 -72 -7 -105 -10 -33 -3 -76 -8 -95 -10 -19 -3 -54
-7 -77 -10 -167 -20 -201 -25 -263 -35 -30 -5 -73 -12 -95 -15 -58 -8 -105
-16 -129 -21 -11 -2 -50 -9 -85 -14 -35 -6 -94 -17 -132 -25 -38 -8 -83 -17
-101 -20 -18 -3 -64 -13 -103 -22 l-70 -16 185 -47 c102 -26 237 -62 300 -79
63 -18 122 -34 130 -36 116 -28 690 -217 915 -302 94 -35 175 -65 180 -67 6
-2 24 -9 40 -15 17 -7 47 -19 68 -27 20 -7 52 -20 70 -28 17 -8 66 -28 107
-45 41 -16 111 -45 155 -65 77 -33 80 -34 115 -19 19 8 134 56 255 105 121 50
234 96 250 103 17 7 71 27 120 45 50 17 108 38 130 47 126 49 734 246 825 268
17 4 257 70 310 85 19 6 96 25 170 44 97 24 127 34 110 39 -45 11 -264 56
-301 61 -20 3 -42 8 -50 10 -8 3 -32 8 -54 11 -22 3 -92 14 -155 25 -63 10
-140 22 -170 25 -30 4 -62 9 -70 10 -18 3 -93 13 -157 20 -27 3 -59 8 -73 10
-14 3 -54 7 -90 10 -36 3 -85 7 -110 10 -54 5 -135 12 -250 21 -47 4 -107 8
-135 11 -63 5 -1012 13 -1017 8z"/>
<path d="M6765 19936 c-262 -97 -497 -191 -639 -256 -276 -126 -379 -176 -541
-259 -207 -107 -364 -194 -550 -304 -224 -133 -509 -316 -501 -324 2 -2 44 3
92 11 108 18 159 26 199 31 47 6 115 16 133 20 15 2 50 7 152 20 19 2 73 9
120 15 47 6 99 12 115 15 17 2 57 7 90 10 33 4 70 8 82 10 12 2 57 6 100 10
43 3 89 8 103 10 14 3 54 7 90 10 36 3 83 8 105 10 22 2 74 7 115 10 41 3 98
8 125 10 28 2 86 7 130 10 44 3 105 8 136 10 31 3 112 7 180 11 68 3 151 7
184 9 398 26 1467 26 1925 0 36 -2 110 -6 165 -9 151 -8 264 -15 320 -21 28
-2 88 -7 135 -10 47 -3 103 -8 125 -10 22 -2 74 -7 115 -10 41 -3 90 -8 107
-10 18 -3 64 -7 102 -10 38 -3 78 -7 88 -9 10 -2 52 -7 93 -11 41 -4 83 -9 92
-10 50 -10 162 -20 223 -19 61 0 102 3 225 19 14 1 54 6 90 10 36 3 76 8 90
10 34 5 122 14 200 20 36 3 85 8 110 10 183 17 390 33 500 40 36 2 110 6 165
10 318 21 650 29 1150 29 429 0 743 -6 965 -19 36 -2 119 -6 185 -10 66 -3
145 -8 175 -10 30 -3 91 -7 135 -10 126 -9 206 -15 255 -20 25 -2 79 -7 120
-10 41 -3 91 -8 110 -10 39 -5 107 -12 190 -20 54 -5 114 -12 175 -20 17 -2
57 -7 90 -10 33 -3 71 -8 85 -10 14 -3 48 -7 75 -11 28 -3 61 -7 75 -10 14 -2
50 -6 80 -9 30 -4 62 -8 70 -10 8 -2 42 -7 75 -11 33 -3 62 -8 65 -9 3 -2 33
-6 65 -10 33 -3 67 -8 76 -11 9 -3 34 -7 55 -9 22 -3 51 -8 67 -11 15 -3 27
-3 27 -1 0 5 -237 161 -323 213 -27 16 -59 36 -72 44 -158 103 -530 307 -810
444 -208 103 -257 126 -376 179 -186 84 -507 211 -739 294 -127 45 -138 46
-233 27 -12 -2 -60 -11 -107 -20 -121 -23 -122 -23 -150 -29 -22 -5 -52 -11
-146 -29 -12 -3 -66 -14 -120 -26 -55 -12 -108 -23 -119 -26 -11 -2 -33 -7
-50 -11 -16 -4 -32 -7 -35 -8 -11 -2 -85 -19 -90 -20 -3 0 -48 -11 -101 -23
-83 -20 -218 -53 -434 -108 -33 -9 -67 -17 -75 -19 -20 -4 -475 -131 -520
-145 -19 -6 -42 -13 -50 -15 -8 -2 -89 -27 -180 -55 -91 -28 -172 -53 -180
-55 -35 -8 -567 -188 -695 -234 l-139 -51 -196 69 c-225 80 -496 171 -690 231
-74 23 -146 45 -160 50 -29 10 -270 81 -285 84 -5 1 -37 10 -70 20 -33 10 -67
20 -75 22 -8 2 -40 10 -70 19 -30 9 -62 17 -70 20 -8 2 -49 12 -90 23 -81 22
-349 91 -378 97 -9 2 -84 20 -167 40 -273 65 -716 159 -890 190 -16 2 -41 7
-55 10 -94 21 -109 18 -315 -59z"/>
<path d="M8528 18575 c-2 -2 -106 -6 -233 -10 -126 -4 -252 -8 -280 -10 -27
-2 -102 -6 -165 -10 -63 -4 -137 -8 -165 -10 -93 -5 -250 -16 -285 -21 -19 -2
-69 -6 -110 -9 -88 -6 -185 -15 -220 -20 -14 -2 -60 -6 -102 -10 -42 -3 -85
-7 -95 -9 -10 -2 -49 -7 -88 -10 -38 -4 -81 -9 -95 -11 -14 -2 -50 -6 -80 -9
-30 -3 -64 -8 -75 -10 -11 -2 -47 -7 -80 -10 -33 -4 -71 -9 -85 -11 -14 -2
-45 -6 -70 -10 -56 -7 -116 -15 -151 -21 -15 -2 -44 -6 -65 -9 -22 -3 -48 -7
-59 -9 -11 -2 -45 -7 -75 -12 -30 -4 -57 -8 -60 -9 -3 -1 -30 -5 -60 -9 -30
-5 -64 -10 -75 -12 -68 -13 -135 -24 -165 -28 -20 -3 -47 -7 -60 -10 -14 -3
-36 -8 -50 -10 -33 -5 -360 -67 -385 -72 -11 -3 -63 -13 -116 -24 -53 -10
-114 -23 -135 -29 -22 -5 -52 -12 -69 -14 -23 -4 -319 -71 -407 -93 -10 -2
-28 -6 -40 -10 -13 -3 -32 -7 -43 -9 -11 -3 -132 -34 -270 -70 -137 -36 -259
-68 -270 -70 -11 -3 -42 -11 -70 -20 -78 -23 -291 -84 -395 -113 l-95 -27
-190 -190 c-104 -105 -219 -222 -254 -260 -35 -39 -83 -90 -105 -115 -23 -25
-82 -92 -131 -150 -50 -58 -93 -107 -96 -110 -10 -9 -254 -314 -299 -375 -25
-33 -47 -62 -51 -65 -36 -33 -380 -535 -503 -735 -37 -60 -77 -122 -87 -137
-10 -15 -19 -30 -19 -33 0 -3 -11 -24 -26 -46 -129 -205 -413 -754 -549 -1064
-80 -181 -164 -389 -160 -394 3 -2 24 5 47 17 223 104 1125 470 1200 487 10 2
32 10 50 19 103 46 923 318 1158 384 19 6 121 35 225 65 105 30 253 71 330 92
77 20 183 48 235 62 99 26 117 31 136 32 6 1 49 52 94 114 247 333 474 598
756 881 141 141 318 305 428 397 16 13 34 29 40 34 179 164 704 541 986 706
489 287 884 473 1391 652 182 65 496 160 634 192 11 2 38 9 60 15 22 5 56 13
75 16 19 3 38 8 43 11 4 2 19 6 33 9 14 3 76 15 137 28 62 14 134 27 161 31
27 3 52 8 55 9 3 2 26 7 51 10 25 3 54 8 65 10 11 2 43 7 70 10 28 4 61 8 75
11 14 2 45 6 70 9 25 3 83 10 130 15 47 6 117 13 155 16 39 3 93 8 120 10 257
22 924 23 1095 1 14 -2 68 -7 120 -10 52 -4 104 -9 115 -11 11 -2 47 -7 80
-10 84 -9 120 -13 200 -25 39 -6 84 -12 100 -14 35 -5 56 -9 230 -41 123 -22
352 -72 440 -96 57 -15 117 -30 135 -34 137 -31 680 -212 797 -266 24 -10 45
-19 48 -19 3 0 50 -19 103 -41 1279 -543 2341 -1382 3171 -2506 l82 -111 107
-26 c98 -24 237 -60 462 -121 398 -108 961 -287 1425 -453 183 -65 440 -162
505 -190 14 -6 70 -28 125 -50 206 -81 510 -209 679 -286 44 -20 83 -35 87
-34 4 2 -19 68 -52 148 -156 379 -380 838 -567 1160 -30 52 -63 111 -74 130
-232 409 -740 1120 -1058 1480 -12 14 -47 54 -78 90 -55 62 -121 136 -207 229
-108 118 -394 404 -420 421 -26 16 -116 46 -240 80 -16 5 -86 25 -155 45 -69
20 -156 45 -195 55 -38 10 -133 35 -210 55 -77 20 -148 39 -157 41 -23 5 -21
5 -218 52 -152 37 -412 98 -456 106 -11 2 -55 12 -99 21 -44 9 -91 19 -105 21
-14 3 -90 18 -170 34 -80 16 -185 36 -235 45 -49 8 -101 17 -115 20 -30 6
-124 23 -165 29 -16 3 -43 7 -60 10 -52 9 -228 36 -265 41 -19 3 -46 7 -60 10
-14 2 -47 7 -75 10 -27 3 -61 8 -75 11 -14 2 -43 7 -65 9 -70 9 -119 15 -145
20 -14 2 -50 7 -80 10 -53 6 -87 10 -167 20 -21 2 -85 9 -143 15 -58 6 -118
13 -135 15 -16 2 -61 7 -100 10 -38 3 -88 8 -110 10 -48 5 -147 13 -230 20
-33 2 -94 7 -135 10 -165 12 -199 15 -305 20 -60 3 -135 7 -165 10 -397 27
-1475 26 -1990 -2 -212 -12 -576 -6 -810 13 -62 5 -1207 13 -1212 9z"/>
<path d="M10068 17225 c-2 -2 -61 -5 -133 -9 -71 -3 -152 -8 -180 -10 -159
-14 -190 -17 -214 -20 -14 -3 -48 -7 -76 -10 -27 -4 -61 -8 -75 -11 -14 -2
-43 -7 -65 -10 -133 -19 -252 -40 -370 -66 -49 -11 -101 -22 -115 -25 -14 -3
-70 -16 -125 -30 -858 -215 -1690 -628 -2395 -1189 -63 -50 -122 -98 -130
-106 -9 -8 -45 -39 -80 -69 -88 -73 -179 -160 -335 -315 -415 -414 -781 -900
-1067 -1420 -69 -124 -212 -417 -262 -535 -27 -63 -56 -133 -66 -155 -10 -22
-34 -87 -55 -145 -20 -58 -41 -114 -46 -125 -10 -22 -58 -174 -60 -190 0 -5
-5 -18 -10 -27 -5 -10 -25 -74 -44 -144 l-35 -126 39 -56 c47 -70 181 -292
233 -387 38 -68 210 -415 240 -485 60 -136 220 -568 232 -625 1 -5 10 -35 19
-65 15 -49 36 -128 43 -155 1 -5 12 -48 23 -94 22 -85 26 -101 56 -251 20
-101 21 -107 35 -190 5 -36 12 -78 15 -95 12 -71 15 -93 20 -140 3 -27 8 -66
10 -85 6 -38 10 -79 22 -235 10 -124 10 -729 0 -845 -8 -87 -15 -162 -22 -215
-2 -16 -6 -59 -10 -95 -4 -36 -9 -72 -10 -82 -2 -9 -7 -38 -11 -65 -3 -26 -8
-57 -10 -68 -3 -11 -7 -36 -10 -55 -2 -19 -7 -46 -10 -60 -2 -14 -6 -34 -8
-45 -14 -74 -39 -188 -51 -235 -8 -30 -16 -66 -19 -80 -3 -14 -8 -36 -11 -50
-5 -22 0 -28 52 -53 305 -144 754 -438 1075 -704 195 -160 481 -434 638 -608
151 -168 354 -428 481 -615 35 -52 66 -97 69 -100 3 -3 10 -14 17 -25 7 -11
50 -83 97 -161 105 -171 144 -244 244 -446 l77 -157 32 4 c18 3 50 7 71 10 75
10 120 17 252 40 74 13 151 27 170 30 19 3 53 11 75 17 22 5 51 12 65 15 62
10 378 96 509 138 213 67 390 135 676 258 52 22 419 207 492 247 49 27 50 29
58 135 4 44 9 93 11 110 23 190 22 869 -1 1025 -2 14 -6 61 -10 105 -3 44 -7
91 -10 105 -2 14 -7 50 -10 80 -3 30 -10 80 -15 110 -5 30 -12 75 -15 99 -4
23 -10 53 -15 66 -17 45 -480 495 -655 638 -233 190 -371 294 -560 422 -71 49
-131 89 -132 89 -1 1 3 24 8 51 5 28 12 66 15 85 3 19 7 42 9 50 2 8 7 38 11
65 3 28 8 59 10 70 6 30 33 242 39 305 3 30 7 71 10 90 4 34 13 158 21 310 4
83 4 497 0 575 -7 126 -17 273 -21 305 -3 19 -7 58 -10 85 -8 80 -16 148 -20
175 -2 14 -9 61 -15 105 -7 44 -14 89 -16 100 -2 11 -9 49 -15 85 -8 53 -28
149 -74 360 -2 8 -11 44 -20 80 -9 36 -19 72 -20 80 -9 37 -49 174 -77 263
-26 83 -34 97 -52 97 -11 0 -66 9 -121 19 -55 10 -118 22 -140 25 -66 11 -340
76 -495 118 -217 59 -591 186 -745 253 -16 7 -75 32 -130 55 -116 49 -464 218
-538 262 -28 16 -81 46 -117 66 -73 40 -331 199 -400 247 -25 17 -67 46 -94
65 l-49 33 39 12 c353 108 645 183 864 221 14 3 48 9 75 14 65 12 109 19 165
25 25 3 55 8 68 10 12 3 44 8 70 11 26 2 61 6 77 9 17 2 64 7 105 10 41 4 86
8 99 10 159 25 985 26 1141 1 14 -3 59 -7 100 -11 41 -3 82 -8 90 -10 45 -14
323 -805 385 -1095 2 -8 11 -46 20 -85 15 -68 53 -249 59 -290 2 -11 8 -47 15
-80 6 -33 13 -78 16 -100 3 -22 10 -69 15 -105 12 -80 22 -164 35 -305 27
-278 27 -1010 0 -1154 -1 -9 -6 -56 -10 -106 -4 -49 -8 -92 -10 -95 -2 -3 -6
-34 -10 -70 -4 -36 -9 -72 -10 -82 -2 -9 -6 -38 -10 -65 -7 -53 -33 -201 -50
-283 -17 -86 -17 -88 2 -94 15 -4 135 -25 293 -51 14 -2 39 -7 56 -10 18 -2
49 -7 70 -10 22 -3 53 -7 69 -9 17 -2 53 -7 80 -11 28 -3 64 -8 80 -10 17 -2
62 -7 100 -10 39 -4 84 -9 100 -11 193 -23 695 -23 900 1 17 2 62 6 100 9 39
4 81 8 95 10 14 3 50 7 81 11 31 3 65 7 75 9 11 2 42 7 69 10 85 12 96 14 255
41 204 34 194 30 185 69 -3 17 -8 38 -9 46 -2 8 -7 35 -12 60 -4 25 -8 47 -9
50 0 3 -4 27 -9 53 -4 27 -9 58 -12 70 -2 12 -6 39 -9 62 -3 22 -8 47 -10 55
-2 8 -7 42 -10 75 -3 33 -8 71 -10 85 -6 41 -19 171 -31 325 -17 197 -9 919
11 1023 1 9 6 53 9 98 4 44 8 92 10 105 3 13 7 47 11 74 13 98 16 122 41 260
34 198 31 185 70 355 45 192 107 409 173 605 28 83 53 155 55 160 2 6 7 19 11
30 4 11 23 61 42 110 19 50 43 108 53 130 9 22 28 64 40 93 20 46 26 52 54 53
17 0 47 2 66 4 19 2 60 6 90 9 267 28 943 28 1155 1 17 -2 59 -7 95 -10 60 -5
263 -30 335 -41 17 -3 44 -7 60 -9 17 -3 41 -7 55 -10 14 -3 52 -10 85 -15 69
-11 63 -10 220 -44 150 -31 322 -76 490 -126 178 -53 205 -62 205 -69 0 -8
-87 -68 -225 -157 -538 -345 -1097 -603 -1700 -784 -126 -38 -304 -86 -355
-96 -14 -3 -33 -7 -42 -10 -19 -6 -7 -3 -228 -47 -96 -20 -195 -38 -220 -42
-58 -8 -80 -14 -78 -23 1 -4 -10 -45 -24 -92 -36 -114 -101 -353 -127 -470
-44 -194 -92 -463 -106 -590 -3 -30 -8 -66 -10 -80 -4 -26 -11 -87 -20 -175
-2 -27 -7 -88 -10 -135 -3 -47 -7 -123 -10 -170 -8 -117 -8 -442 0 -575 12
-230 19 -330 30 -415 3 -19 8 -62 11 -95 3 -33 8 -68 10 -79 2 -10 6 -44 9
-75 4 -31 8 -63 10 -71 3 -8 7 -33 10 -55 3 -22 8 -51 11 -65 2 -14 7 -36 9
-50 3 -14 9 -47 14 -75 5 -27 6 -52 2 -55 -4 -3 -32 -21 -62 -40 -30 -19 -56
-37 -59 -40 -3 -3 -34 -25 -70 -49 -182 -124 -458 -342 -665 -525 -104 -92
-458 -445 -479 -478 -8 -13 -17 -41 -20 -63 -3 -22 -12 -89 -21 -150 -18 -125
-21 -151 -31 -255 -4 -41 -8 -88 -10 -105 -22 -216 -22 -883 0 -1025 3 -14 7
-63 11 -110 3 -47 8 -92 11 -101 2 -8 35 -32 72 -53 89 -50 400 -204 482 -240
280 -121 516 -209 730 -273 102 -30 323 -91 353 -97 12 -3 94 -21 182 -40 88
-19 176 -37 195 -40 19 -2 64 -10 100 -16 36 -7 74 -13 85 -15 31 -4 148 -18
170 -20 16 -1 38 34 121 199 56 111 112 220 125 242 21 37 71 122 119 203 118
199 422 613 565 771 267 293 412 438 620 616 343 295 813 610 1157 777 75 35
72 27 45 132 -17 66 -66 295 -72 335 -2 14 -6 39 -9 55 -3 17 -10 59 -15 95
-6 36 -13 74 -15 85 -8 44 -29 245 -41 385 -15 190 -21 552 -11 715 13 198 17
263 21 295 2 19 7 62 10 95 3 33 8 71 10 85 2 14 6 45 10 70 4 25 8 56 10 70
4 29 25 162 29 182 2 7 6 29 10 48 4 19 8 42 10 50 14 76 21 106 38 175 11 44
22 89 24 100 30 155 178 596 286 855 111 264 352 715 499 932 l39 56 -31 109
c-43 155 -145 465 -184 558 -7 17 -38 93 -70 170 -61 148 -230 503 -285 595
-17 30 -48 84 -67 120 -20 36 -49 84 -64 108 -16 24 -29 45 -29 48 0 3 -52 84
-116 179 -331 499 -711 929 -1182 1338 -25 21 -274 219 -347 275 -5 4 -48 35
-95 68 -405 287 -821 515 -1275 700 -60 25 -119 49 -130 54 -72 32 -332 118
-529 175 -173 50 -434 110 -631 145 -33 5 -71 12 -85 15 -58 10 -159 24 -215
30 -33 4 -71 8 -84 10 -14 3 -54 7 -90 10 -36 3 -84 8 -106 10 -122 13 -726
29 -737 20z"/>
<path d="M3505 14534 c-481 -178 -1011 -400 -1525 -640 -224 -104 -845 -418
-1025 -519 -33 -18 -82 -45 -110 -60 -167 -92 -436 -247 -453 -262 -17 -15
-63 -163 -97 -313 -2 -8 -18 -78 -35 -155 -54 -235 -85 -392 -115 -575 -3 -19
-8 -47 -10 -62 -10 -60 -14 -85 -20 -128 -3 -25 -8 -52 -10 -60 -2 -8 -7 -40
-10 -70 -3 -30 -8 -66 -10 -80 -2 -14 -6 -47 -10 -75 -3 -27 -7 -63 -9 -80 -2
-16 -7 -61 -11 -100 -3 -38 -8 -83 -10 -100 -2 -16 -7 -68 -10 -115 -3 -47 -8
-103 -10 -125 -20 -204 -28 -1066 -12 -1300 4 -60 10 -144 12 -185 3 -41 7
-99 10 -127 3 -29 7 -79 10 -110 13 -143 37 -333 42 -333 2 0 41 35 86 78 45
43 111 105 146 138 35 32 73 68 85 79 140 131 462 412 676 590 85 71 157 132
160 135 3 3 70 57 150 120 80 63 152 121 160 127 12 10 144 112 290 224 89 68
468 345 557 407 10 7 61 42 113 79 118 82 513 346 598 399 34 21 88 56 120 76
31 21 74 47 95 58 l38 21 -37 67 c-42 74 -148 242 -216 342 -24 36 -91 134
-148 219 l-103 154 12 46 c7 25 14 53 16 61 2 8 8 35 15 60 7 25 14 52 16 60
1 8 17 67 34 130 17 63 33 125 36 136 14 71 113 399 172 569 68 195 169 455
229 585 17 36 46 101 66 145 57 126 195 395 264 513 14 23 23 42 21 42 -1 -1
-106 -39 -233 -86z"/>
<path d="M16838 14567 c47 -81 160 -296 191 -362 122 -254 151 -318 151 -329
0 -7 4 -16 9 -22 12 -12 132 -316 193 -489 49 -140 123 -378 158 -510 11 -38
26 -97 35 -130 9 -33 18 -67 20 -75 2 -8 25 -96 50 -196 l47 -181 -190 -284
c-221 -331 -318 -489 -305 -498 5 -3 70 -44 144 -90 147 -93 649 -428 689
-460 14 -11 29 -21 33 -21 5 0 14 -6 21 -12 8 -7 53 -40 101 -73 48 -33 115
-81 148 -106 34 -25 114 -83 177 -129 95 -70 415 -312 470 -357 8 -6 89 -71
180 -144 140 -112 501 -411 536 -444 6 -5 42 -37 80 -70 181 -159 240 -211
250 -220 9 -8 130 -120 248 -229 17 -15 67 -63 111 -105 l79 -76 7 40 c7 42
15 112 24 205 3 30 7 70 9 89 3 18 8 74 11 125 4 50 8 107 10 126 27 286 27
1198 0 1480 -2 19 -6 69 -9 110 -12 138 -33 348 -41 400 -2 14 -6 50 -10 80
-3 30 -8 66 -10 80 -2 14 -7 43 -10 65 -3 23 -7 52 -10 65 -3 14 -7 43 -10 65
-11 88 -60 352 -95 515 -17 80 -34 156 -36 170 -4 21 -41 171 -60 245 -3 11
-7 29 -9 40 -3 11 -15 58 -28 105 l-23 85 -86 51 c-123 74 -503 285 -713 396
-575 304 -1199 594 -1785 830 -74 30 -144 59 -155 63 -11 5 -22 9 -25 10 -3 1
-16 6 -30 12 -46 19 -354 135 -463 174 l-108 39 29 -53z"/>
<path d="M16869 10782 c-44 -113 -126 -394 -155 -527 -20 -94 -41 -201 -48
-250 -4 -22 -8 -51 -11 -65 -26 -169 -31 -216 -40 -340 -4 -47 -8 -95 -10
-107 -3 -16 7 -32 33 -54 360 -313 977 -921 1398 -1378 32 -36 66 -72 74 -81
8 -9 47 -52 85 -95 39 -44 87 -98 107 -120 34 -37 104 -119 233 -269 28 -33
55 -64 60 -70 9 -10 96 -115 310 -377 38 -48 95 -119 125 -159 30 -40 60 -77
65 -84 6 -6 33 -40 60 -76 27 -36 55 -72 62 -80 29 -35 242 -325 330 -447 52
-73 98 -133 102 -133 5 0 11 8 14 18 3 9 26 64 52 122 179 403 369 954 496
1435 36 140 31 120 64 258 13 60 27 112 30 117 5 8 -338 348 -549 545 -65 61
-135 126 -156 145 -21 19 -75 69 -121 110 -45 41 -87 80 -93 85 -6 6 -45 39
-86 75 -41 36 -84 73 -95 83 -39 36 -391 333 -470 397 -44 36 -87 70 -95 77
-489 398 -1014 780 -1658 1205 l-102 68 -11 -28z"/>
<path d="M3620 10776 c-19 -13 -111 -74 -205 -136 -219 -146 -399 -269 -500
-341 -44 -32 -107 -77 -140 -101 -228 -162 -971 -735 -1041 -803 -6 -5 -35
-30 -64 -55 -70 -58 -326 -277 -365 -311 -92 -81 -246 -218 -284 -253 -204
-187 -333 -310 -564 -536 -239 -235 -220 -194 -172 -380 15 -58 28 -112 30
-120 11 -55 106 -398 125 -450 5 -14 23 -72 41 -130 80 -264 277 -790 370
-988 21 -46 39 -88 39 -93 0 -25 26 2 106 114 203 283 423 572 658 867 83 104
385 468 421 506 5 7 33 38 60 70 90 105 275 312 419 468 385 418 906 932 1308
1291 48 43 86 81 84 84 -2 3 -7 51 -10 106 -4 55 -8 112 -11 125 -2 14 -7 50
-10 80 -5 57 -9 85 -25 180 -5 30 -12 73 -16 95 -13 86 -91 412 -114 475 -4
14 -25 78 -45 143 -21 64 -42 117 -49 117 -6 0 -27 -11 -46 -24z"/>
<path d="M3795 8345 c-306 -314 -438 -453 -579 -610 -55 -60 -102 -112 -105
-115 -15 -13 -290 -330 -395 -455 -65 -77 -128 -151 -139 -165 -29 -34 -266
-328 -299 -371 -14 -18 -53 -68 -86 -110 -33 -41 -128 -167 -211 -280 -84
-112 -158 -211 -164 -219 -7 -8 -61 -85 -121 -170 -60 -85 -130 -184 -156
-220 -25 -36 -90 -131 -144 -212 l-98 -146 53 -94 c200 -351 460 -747 714
-1083 82 -110 194 -253 220 -282 5 -6 39 -48 75 -92 l65 -80 22 37 c44 73 90
147 248 395 226 355 491 744 742 1086 54 73 340 451 362 477 30 35 42 51 91
114 122 157 602 732 667 798 7 7 13 17 13 20 0 4 -226 120 -502 257 -277 137
-505 250 -507 252 -4 3 18 98 64 266 14 54 28 106 30 115 2 9 15 62 30 117 14
55 28 107 30 115 2 8 27 103 55 210 59 223 129 544 117 539 -1 -1 -42 -43 -92
-94z"/>
<path d="M16664 8408 c6 -29 16 -84 23 -123 4 -23 54 -238 78 -335 2 -8 50
-188 105 -400 120 -453 111 -419 116 -450 5 -24 -8 -31 -238 -144 -445 -218
-768 -380 -768 -387 0 -3 8 -15 18 -26 9 -11 37 -44 62 -73 25 -29 54 -62 65
-74 58 -63 341 -403 479 -576 59 -74 118 -148 132 -165 122 -152 411 -540 581
-780 196 -277 596 -878 628 -945 5 -11 13 -20 17 -20 5 0 8 -6 8 -14 0 -7 9
-24 19 -37 20 -25 38 -55 93 -151 34 -60 36 -62 53 -50 44 31 577 731 624 821
6 11 17 25 24 33 11 11 55 79 192 293 53 83 168 274 224 373 l53 92 -58 88
c-65 97 -342 500 -356 517 -4 5 -67 91 -139 190 -118 161 -388 520 -414 549
-5 6 -50 62 -100 125 -79 100 -442 538 -470 567 -5 6 -37 42 -70 80 -90 103
-215 244 -256 289 -20 22 -49 54 -64 70 -181 200 -628 663 -656 681 -6 3 -8
-4 -5 -18z"/>
<path d="M5048 6232 c-27 -30 -286 -378 -348 -469 -8 -11 -42 -59 -74 -105
-33 -45 -74 -103 -91 -128 -17 -25 -51 -73 -76 -108 -24 -35 -49 -71 -54 -80
-6 -9 -71 -109 -146 -222 -74 -113 -170 -261 -214 -330 -43 -69 -88 -141 -101
-160 -24 -37 -155 -255 -184 -305 -10 -16 -47 -81 -84 -143 -36 -62 -77 -132
-90 -155 -143 -255 -185 -332 -266 -481 -17 -33 -89 -172 -160 -310 l-129
-252 137 -130 c132 -127 374 -345 477 -431 28 -22 79 -66 115 -95 36 -30 130
-105 210 -167 80 -62 152 -118 160 -124 123 -100 787 -545 795 -534 1 1 35 67
75 147 115 228 296 559 460 845 10 17 33 57 52 90 197 342 538 880 796 1255
29 41 58 83 65 94 6 10 26 37 42 60 17 22 39 54 50 71 10 16 22 34 27 40 5 5
42 56 83 112 l74 102 -19 38 c-10 21 -50 101 -88 178 -255 516 -616 990 -1057
1388 -150 136 -151 136 -286 240 l-126 96 -25 -27z"/>
<path d="M15344 6157 c-482 -375 -866 -807 -1173 -1320 -85 -141 -206 -375
-257 -496 -9 -22 5 -45 143 -239 260 -364 662 -973 798 -1210 6 -9 56 -93 111
-187 215 -361 408 -711 586 -1062 l72 -141 26 14 c39 22 52 30 280 180 183
120 259 173 450 311 37 28 332 256 360 280 14 11 68 56 120 99 52 43 97 81
100 84 3 3 39 34 80 70 98 85 82 70 210 190 195 181 260 246 260 259 0 37
-443 865 -644 1205 -42 70 -76 129 -76 131 0 9 -302 494 -453 727 -217 337
-835 1207 -857 1207 -3 0 -64 -46 -136 -102z"/>
<path d="M10107 4514 c-1 -1 -69 -5 -152 -9 -82 -3 -168 -8 -190 -10 -22 -2
-69 -6 -105 -10 -86 -7 -171 -17 -194 -21 -10 -2 -44 -6 -75 -10 -31 -3 -58
-8 -61 -9 -3 -2 -29 -6 -59 -10 -44 -5 -237 -42 -381 -71 -181 -37 -567 -151
-783 -230 -104 -38 -127 -50 -122 -63 39 -100 137 -552 170 -776 3 -22 7 -53
10 -70 2 -16 7 -50 9 -75 16 -144 17 -148 45 -158 53 -20 148 -51 221 -72 41
-12 95 -28 120 -36 53 -16 353 -90 396 -97 31 -6 123 -24 164 -32 21 -5 220
-36 315 -50 34 -5 91 -12 180 -20 33 -3 74 -8 90 -10 76 -12 305 -20 575 -20
301 0 444 6 658 29 28 3 78 9 110 12 31 4 64 8 74 9 9 2 38 7 65 10 54 8 305
51 343 59 14 3 50 11 80 17 43 9 228 54 343 84 9 3 27 7 38 10 12 2 100 29
195 60 168 54 174 56 175 83 0 15 2 36 4 47 2 11 7 45 10 75 3 30 7 62 10 70
2 8 6 41 10 72 3 31 7 63 10 70 2 7 7 31 10 53 3 22 12 74 20 115 8 41 17 87
20 103 10 53 16 79 36 160 11 45 22 92 24 103 3 12 16 58 28 103 17 58 21 84
13 90 -6 5 -51 23 -101 40 -49 18 -99 36 -110 41 -132 57 -723 210 -945 245
-19 3 -57 10 -85 15 -27 5 -104 17 -170 25 -66 9 -133 18 -150 20 -16 2 -61 6
-100 10 -38 3 -88 8 -110 10 -106 12 -669 27 -678 19z"/>
<path d="M6768 3218 c-223 -335 -359 -550 -540 -853 -81 -137 -288 -495 -288
-500 0 -2 -13 -26 -28 -52 -16 -26 -50 -88 -77 -138 -26 -49 -60 -112 -75
-140 -15 -27 -67 -126 -115 -219 -70 -135 -85 -170 -74 -178 8 -5 93 -48 189
-94 96 -47 186 -91 200 -98 44 -24 391 -173 515 -221 66 -26 153 -60 194 -76
40 -16 79 -29 86 -29 7 0 18 23 25 53 26 108 151 571 200 738 88 299 253 820
270 851 17 30 11 51 -31 113 -114 170 -190 390 -214 625 -13 120 -69 437 -79
447 -2 2 -73 -101 -158 -229z"/>
<path d="M13620 3447 c0 -2 -9 -47 -20 -99 -19 -90 -23 -114 -35 -205 -3 -21
-7 -49 -10 -63 -2 -14 -7 -47 -10 -75 -3 -27 -8 -61 -10 -75 -2 -14 -7 -45
-10 -69 -6 -42 -43 -180 -63 -231 -5 -14 -10 -28 -11 -32 -9 -32 -112 -215
-156 -275 -7 -9 8 -67 52 -201 107 -322 174 -540 266 -867 55 -194 134 -484
141 -520 24 -112 29 -123 50 -115 12 5 92 36 179 69 86 33 172 67 190 74 17 8
73 31 122 52 50 21 132 57 184 81 51 24 95 44 97 44 11 0 414 200 414 206 0
11 -211 412 -326 619 -39 72 -84 153 -99 180 -180 327 -495 841 -772 1258
-146 219 -173 257 -173 244z"/>
<path d="M7767 1893 c-2 -4 -8 -35 -13 -68 -4 -33 -8 -62 -9 -65 -1 -3 -5 -30
-9 -60 -5 -30 -10 -64 -12 -75 -3 -11 -6 -37 -9 -57 -3 -21 -7 -55 -10 -75 -3
-21 -6 -47 -9 -58 -2 -11 -7 -45 -11 -75 -8 -66 -15 -116 -20 -150 -2 -14 -7
-52 -11 -85 -3 -33 -8 -68 -9 -77 -3 -15 -15 -123 -20 -173 -1 -11 -4 -42 -8
-70 -14 -108 -21 -178 -32 -310 -4 -44 -8 -92 -11 -107 -3 -23 1 -28 28 -37
71 -23 394 -100 573 -136 44 -10 89 -19 100 -21 65 -14 246 -46 280 -50 22 -3
48 -7 58 -10 23 -7 22 -4 -18 76 -73 145 -192 469 -220 600 -1 8 -8 33 -13 55
-6 22 -13 51 -16 65 -3 14 -10 50 -15 80 -6 30 -13 66 -16 80 -3 14 -7 36 -10
50 -2 14 -7 45 -10 70 -3 25 -8 65 -11 90 -3 25 -7 56 -9 70 -10 71 -22 235
-24 332 l-1 47 -57 16 c-56 15 -371 116 -404 130 -10 3 -19 3 -22 -2z"/>
<path d="M12716 1879 c-28 -11 -131 -45 -230 -75 -99 -30 -181 -56 -182 -57
-1 -1 -5 -36 -8 -77 -9 -107 -16 -169 -22 -212 -3 -21 -7 -50 -9 -65 -16 -122
-48 -268 -95 -438 -43 -153 -130 -389 -201 -544 -38 -81 -119 -242 -129 -256
-4 -5 -9 -17 -13 -26 -4 -14 1 -15 36 -8 23 4 58 10 77 13 19 3 76 13 125 21
50 9 101 18 115 20 43 7 323 65 360 75 19 5 46 11 60 14 14 2 90 21 170 41 80
20 150 38 155 39 45 10 55 18 50 44 -2 15 -7 63 -11 107 -10 122 -10 125 -18
195 -4 36 -9 81 -11 100 -16 145 -27 241 -40 338 -3 20 -7 57 -10 82 -3 25 -8
56 -10 70 -4 29 -13 90 -19 140 -3 19 -7 49 -10 65 -5 28 -15 97 -21 140 -6
49 -17 114 -25 165 -6 30 -11 67 -12 83 -3 32 -7 32 -72 6z"/>
<path d="M9257 1532 c-6 -12 6 -520 18 -762 8 -156 15 -294 20 -355 2 -33 6
-103 10 -155 8 -129 15 -213 18 -216 1 -1 47 -5 102 -9 55 -4 108 -9 117 -10
141 -27 1167 -26 1468 0 25 2 83 7 130 10 47 4 86 8 86 8 2 3 13 121 19 197
13 196 17 267 30 520 6 115 15 453 19 643 l2 138 -41 -5 c-22 -3 -62 -8 -90
-11 -27 -3 -66 -8 -85 -10 -19 -3 -66 -8 -105 -11 -38 -3 -86 -7 -105 -9 -239
-26 -922 -26 -1190 0 -25 3 -76 7 -115 10 -38 3 -81 7 -95 10 -14 2 -52 6 -85
10 -33 4 -74 8 -92 11 -18 2 -34 0 -36 -4z"/>
</g>
</svg>
